<svg width="84" height="43" viewBox="0 0 84 43" fill="none" xmlns="http://www.w3.org/2000/svg">
<path fill-rule="evenodd" clip-rule="evenodd" d="M7.44403 1.49161C5.64781 3.34663 6.16711 6.10625 8.60578 7.6631L9.98121 8.54091L9.74325 10.7714C9.24198 15.4744 8.30572 17.8545 6.95699 17.8545C5.83063 17.8545 5.12851 16.7645 4.19884 13.5725L3.44781 10.994L1.90899 11.093C1.06257 11.1473 0.228633 11.3283 0.0558795 11.495C-0.32501 11.8624 1.32725 16.3881 2.40574 17.9322C4.83573 21.4107 8.95163 21.3437 11.0524 17.792C12.0099 16.1729 12.1767 15.6006 12.67 12.2456C13.1099 9.25341 12.7588 8.22432 10.9268 7.13667C10.1602 6.6812 9.45636 6.00753 9.3634 5.6394C9.15838 4.82985 9.94757 2.09935 10.4103 2.01703C10.5921 1.98456 10.9133 2.63581 11.1242 3.4641C11.4621 4.7907 11.6088 4.95669 12.355 4.85763C13.6437 4.68628 13.8082 4.34761 13.3759 2.75361C12.8698 0.886539 12.2613 0.452148 10.1529 0.452148C8.69562 0.452148 8.30537 0.601742 7.44403 1.49161ZM40.2345 5.51189C39.9744 5.91784 40.3646 20.2172 40.6696 21.4521C40.8257 22.085 41.0879 22.2051 42.3107 22.2051C45.6093 22.2051 49.3756 19.2424 49.7096 16.385C49.9233 14.5558 49.2989 13.3778 46.6722 10.654C45.558 9.49838 44.074 7.78458 43.3743 6.84518C42.1088 5.14544 40.8198 4.59827 40.2345 5.51189ZM15.3196 10.0563C15.2041 12.5967 15.041 16.0002 14.9578 17.6196C14.811 20.4652 14.8336 20.5743 15.6224 20.8635C16.1178 21.0452 16.9274 21.0328 17.6823 20.8317L18.9259 20.5004V18.0453C18.9259 15.3349 19.0598 15.1923 21.6143 15.1819L22.7417 15.1772V18.0155C22.7417 20.7855 22.7632 20.8588 23.6346 21.07C24.1255 21.1888 24.9251 21.1115 25.4111 20.8976L26.2946 20.5094L26.041 13.5762C25.9016 9.7631 25.6383 6.3713 25.4562 6.03899C25.2095 5.58887 24.7978 5.46036 23.8466 5.53699L22.5683 5.6394L22.6921 9.739L22.8156 13.8386H20.9094H19.0029L18.7042 9.739L18.4055 5.6394L16.9677 5.53833L15.5298 5.43693L15.3196 10.0563ZM52.0106 6.03731C50.027 6.4128 48.7959 9.82802 49.8008 12.1683C51.7327 16.6682 58.332 15.0658 57.6497 10.2624C57.1678 6.87296 55.2374 5.42655 52.0106 6.03731ZM29.853 6.64907C29.0899 6.91647 28.4266 7.13768 28.3787 7.14036C28.0173 7.16144 28.4252 8.16208 29 8.66373C29.6706 9.24906 29.7601 9.25173 30.7012 8.71561C31.2476 8.40404 31.9268 8.14936 32.2105 8.14936C32.6924 8.14936 33.8427 10.336 33.842 11.2517C33.842 11.4782 32.8082 12.5552 31.5445 13.6452C29.135 15.7241 28.292 17.0965 28.292 18.9405C28.292 21.8792 30.6526 22.3761 34.175 20.1798C35.3714 19.4338 36.3889 18.8692 36.4364 18.9248C36.4836 18.9803 36.6733 19.4776 36.8572 20.0298C37.1989 21.0542 38.4512 21.574 39.0908 20.9569C39.2754 20.7788 38.6243 18.4439 37.4944 15.2345C35.5341 9.66638 34.5836 7.53559 33.7809 6.91078C32.9536 6.26655 31.2659 6.15411 29.853 6.64907ZM59.2894 6.9824C59.0549 7.5714 60.4359 18.0142 60.8869 19.0667C61.4759 20.4398 62.8309 20.3615 65.5096 18.8003C66.8576 18.0145 68.0114 17.5182 68.0738 17.6969C68.4943 18.899 69.6605 20.2363 70.1354 20.0603C70.4293 19.9515 70.9395 19.8625 71.2691 19.8625C72.7125 19.8625 72.9997 19.1577 73.8982 13.4089C74.3807 10.3193 74.7758 7.57106 74.7758 7.30133C74.7758 6.95295 74.378 6.81071 73.4039 6.81071C71.8418 6.81071 72.0711 6.22071 71.1317 12.6472C70.8375 14.6612 70.5434 16.3599 70.4785 16.4229C70.4133 16.4854 70.1014 16.1555 69.7847 15.6896C69.4684 15.2238 68.94 14.8463 68.6105 14.851C68.2809 14.8556 67.0831 15.6043 65.9488 16.5146C64.8141 17.4248 63.8417 18.1266 63.7873 18.0741C63.7332 18.0219 63.3762 15.8804 62.9943 13.3152C61.8842 5.86095 62.0906 6.47605 60.6999 6.47605C59.9402 6.47605 59.4157 6.66447 59.2894 6.9824ZM78.4182 7.0751C77.3828 7.27991 76.2657 8.40805 76.0451 9.47228C75.7281 11.002 76.4663 12.8179 78.0821 14.4845C78.915 15.3432 79.7458 16.4252 79.9283 16.8887C80.4111 18.1139 79.7992 20.7594 78.7166 22.1288C77.2582 23.9735 75.2018 24.6716 71.3069 24.6431C69.4944 24.6301 67.2309 24.4454 66.2769 24.2325C63.6901 23.6556 59.2759 21.4699 56.8223 19.5513C55.629 18.6182 54.5262 17.8545 54.3722 17.8545C54.2182 17.8545 53.6708 18.2786 53.1564 18.7969L52.2204 19.7394L53.0044 20.4415C55.0313 22.256 60.8137 25.6103 63.1233 26.3111C66.4199 27.3111 73.5145 27.3797 76.6838 26.442C80.4909 25.3158 82.9032 22.006 82.8404 17.9944C82.813 16.2622 82.0318 14.9283 79.827 12.8487C78.6874 11.7741 78.2448 11.0924 78.2448 10.4117C78.2448 8.68783 79.7281 8.9318 82.087 11.0442C82.9719 11.8363 82.9868 11.838 83.5956 11.1891C84.1874 10.5579 84.1749 10.489 83.255 9.32569C81.9402 7.66243 80.0039 6.76152 78.4182 7.0751ZM54.9776 8.02721C55.373 8.51213 55.6967 9.3953 55.6967 9.99C55.6967 11.2369 54.5439 12.8346 53.6437 12.8346C52.6724 12.8346 51.8139 11.6519 51.6276 10.0573C51.476 8.75911 51.5652 8.50879 52.4091 7.86858C53.6479 6.92851 54.1048 6.95663 54.9776 8.02721ZM44.8663 11.6161C48.1784 14.9949 47.9803 18.3562 44.3629 20.153C43.4711 20.5961 43.3729 20.2875 43.044 16.0139C42.9306 14.5414 42.7471 12.5461 42.6364 11.5796C42.5164 10.5338 42.5709 9.82267 42.7714 9.82267C42.9563 9.82267 43.8991 10.6299 44.8663 11.6161ZM35.547 15.5732C35.8949 16.5363 35.8401 16.7311 34.9739 17.6045C33.7164 18.8726 31.8647 19.9639 31.4203 19.6989C30.5898 19.2039 31.113 17.8063 32.7378 16.1802C33.6567 15.2606 34.5781 14.5079 34.7852 14.5079C34.9926 14.5079 35.3354 14.9872 35.547 15.5732ZM3.862 24.2509C2.96702 31.9602 2.62186 35.0247 2.62186 35.265C2.62186 35.8617 3.75863 36.5956 4.68275 36.5956C5.53473 36.5956 5.67938 36.4423 5.86809 35.3406C5.98638 34.6505 6.08733 33.3326 6.09219 32.4123C6.10363 30.3505 6.22747 30.1748 8.17216 29.468C11.6238 28.213 13.3971 26.3439 12.9104 24.4731C12.6096 23.3179 11.4788 22.9404 7.5311 22.678L4.07118 22.4481L3.862 24.2509ZM17.5383 23.1214C16.6797 23.1927 15.8437 23.3785 15.6803 23.5334C15.3799 23.8189 14.4544 33.0646 14.4298 36.0283L14.4163 37.6364L16.064 37.5343L17.7118 37.4322L17.9816 33.7697C18.1298 31.755 18.3358 30.0255 18.4388 29.9261C18.7531 29.6229 19.8441 31.2376 21.7586 34.8386C22.7615 36.7254 23.6551 38.2689 23.7446 38.2689C24.3159 38.2689 26.2107 37.4095 26.2107 37.1501C26.2107 36.9768 25.2119 35.0116 23.9912 32.7831L21.7718 28.731L22.9505 27.2632C25.0919 24.597 24.2271 22.8196 20.8432 22.933C19.884 22.9652 18.3969 23.0498 17.5383 23.1214ZM47.1634 24.179C46.5282 24.5525 45.8542 25.3757 45.5157 26.1923C44.7875 27.9483 44.7622 31.6064 45.4692 32.9253C46.1775 34.2466 47.8281 35.0397 49.3114 34.7713C51.4649 34.3815 53.8085 31.4746 52.5666 30.7343C52.3713 30.6179 51.4521 31.1359 50.5238 31.8859C48.619 33.424 48.2405 33.521 47.7302 32.6017C47.0909 31.4488 47.3403 30.9267 49.1182 29.6942C52.6842 27.2227 52.8469 24.3369 49.4526 23.755C48.5794 23.6054 47.9366 23.7245 47.1634 24.179ZM9.36166 24.4042C10.5026 25.5052 9.73596 27.4433 7.77185 28.4228C7.19357 28.7116 6.63993 28.8703 6.54176 28.7755C6.44359 28.6808 6.47377 27.5403 6.60906 26.2408C6.8498 23.927 6.87512 23.8784 7.83567 23.8784C8.37509 23.8784 9.0616 24.115 9.36166 24.4042ZM21.846 24.0816C22.5527 24.343 22.5554 25.8506 21.8516 26.8205C21.5529 27.2321 20.6943 27.871 19.9437 28.2404L18.579 28.9121V26.7465C18.579 25.037 18.707 24.5093 19.1861 24.2399C19.8771 23.8517 21.0385 23.7824 21.846 24.0816ZM28.0801 24.516C26.34 25.5394 25.3958 27.1049 25.247 29.2113C25.0749 31.6466 25.6293 32.4157 27.5226 32.3678C31.1289 32.2764 33.5919 28.3094 31.9472 25.2412C31.1345 23.7245 29.8381 23.4815 28.0801 24.516ZM38.0758 24.3888C34.1916 24.9745 34.1244 25.0079 34.2537 26.3024C34.3138 26.9018 34.5188 27.3857 34.7096 27.3777C34.9004 27.3693 36.4295 27.2381 38.1074 27.0858C39.7853 26.9332 41.2364 26.8844 41.3325 26.9767C41.7255 27.3562 38.7651 32.8012 37.6915 33.6726C36.673 34.4996 36.3018 34.5876 33.8409 34.5876C31.3027 34.5876 31.0679 34.6485 30.3886 35.4815C29.3494 36.7562 29.92 37.0976 33.0896 37.0976C36.6237 37.0976 38.6763 36.1347 40.4965 33.6235C41.7654 31.8725 43.6338 27.4396 44.0889 25.1006L44.3265 23.8784L42.6399 23.9169C41.7127 23.938 39.6587 24.1505 38.0758 24.3888ZM50.1464 25.859C50.1464 26.4691 47.4153 29.7216 47.1322 29.4485C46.769 29.0982 47.7961 26.5718 48.628 25.7689C49.5931 24.8383 50.1464 24.871 50.1464 25.859ZM30.501 27.4095C30.465 28.4339 30.1961 28.9251 29.1811 29.8227C28.48 30.4425 27.72 30.8906 27.4921 30.818C26.2956 30.4381 27.3499 27.2251 28.9445 26.3901C30.2249 25.7201 30.5534 25.9353 30.501 27.4095ZM56.2378 27.203C54.622 28.9255 54.1696 33.0723 55.3425 35.4095C56.1903 37.0989 57.5907 37.9342 59.5756 37.9342C61.3247 37.9342 62.4108 37.3141 63.1819 35.8757C63.8889 34.5572 63.6034 33.9183 62.3074 33.9183C61.4999 33.9183 61.1436 34.1445 60.7266 34.9223C60.3107 35.698 59.9527 35.9263 59.1517 35.9263C57.6767 35.9263 56.7405 34.3554 56.7387 31.8785C56.737 29.6433 57.3722 28.8984 59.2797 28.8984C60.3062 28.8984 60.5532 28.7732 60.5532 28.2528C60.5532 26.621 57.4842 25.8744 56.2378 27.203ZM74.6024 28.2692C73.4576 28.4272 70.5996 28.5259 68.2515 28.4884C63.5434 28.4131 63.3436 28.4938 63.3335 30.475L63.3283 31.5496L66.3637 31.6463L69.399 31.743L69.4153 37.0976L69.4312 42.4521H70.8029H72.1741L72.2692 37.0387L72.3646 31.6252L73.4833 31.417C76.3542 30.8832 77.9142 30.4823 78.071 30.2377C78.1646 30.0911 78.1449 29.5038 78.0266 28.9328C77.7917 27.8013 77.876 27.8177 74.6024 28.2692Z" fill="white"/>
</svg>
