<svg width="84" height="42" viewBox="0 0 84 42" fill="none" xmlns="http://www.w3.org/2000/svg">
<path fill-rule="evenodd" clip-rule="evenodd" d="M7.44403 1.03946C5.64781 2.89449 6.16711 5.6541 8.60578 7.21095L9.98121 8.08876L9.74325 10.3193C9.24198 15.0223 8.30572 17.4024 6.95699 17.4024C5.83063 17.4024 5.12851 16.3124 4.19884 13.1204L3.44781 10.5418L1.90899 10.6409C1.06257 10.6951 0.228633 10.8762 0.0558795 11.0428C-0.32501 11.4103 1.32725 15.9359 2.40574 17.48C4.83573 20.9585 8.95163 20.8916 11.0524 17.3398C12.0099 15.7207 12.1767 15.1484 12.67 11.7935C13.1099 8.80126 12.7588 7.77218 10.9268 6.68453C10.1602 6.22905 9.45636 5.55538 9.3634 5.18725C9.15838 4.37771 9.94757 1.6472 10.4103 1.56488C10.5921 1.53241 10.9133 2.18367 11.1242 3.01195C11.4621 4.33855 11.6088 4.50454 12.355 4.40548C13.6437 4.23414 13.8082 3.89546 13.3759 2.30147C12.8698 0.434391 12.2613 0 10.1529 0C8.69562 0 8.30537 0.149594 7.44403 1.03946ZM40.2345 5.05974C39.9744 5.46569 40.3646 19.7651 40.6696 21C40.8257 21.6328 41.0879 21.753 42.3107 21.753C45.6093 21.753 49.3756 18.7902 49.7096 15.9329C49.9233 14.1036 49.2989 12.9256 46.6722 10.2018C45.558 9.04623 44.074 7.33243 43.3743 6.39304C42.1088 4.69329 40.8198 4.14612 40.2345 5.05974ZM15.3196 9.60411C15.2041 12.1445 15.041 15.548 14.9578 17.1675C14.811 20.0131 14.8336 20.1222 15.6224 20.4113C16.1178 20.5931 16.9274 20.5807 17.6823 20.3795L18.9259 20.0482V17.5931C18.9259 14.8827 19.0598 14.7402 21.6143 14.7298L22.7417 14.7251V17.5634C22.7417 20.3334 22.7632 20.4066 23.6346 20.6178C24.1255 20.7366 24.9251 20.6593 25.4111 20.4455L26.2946 20.0573L26.041 13.1241C25.9016 9.31095 25.6383 5.91916 25.4562 5.58684C25.2095 5.13672 24.7978 5.00821 23.8466 5.08485L22.5683 5.18725L22.6921 9.28685L22.8156 13.3865H20.9094H19.0029L18.7042 9.28685L18.4055 5.18725L16.9677 5.08618L15.5298 4.98478L15.3196 9.60411ZM52.0106 5.58516C50.027 5.96065 48.7959 9.37587 49.8008 11.7162C51.7327 16.216 58.332 14.6137 57.6497 9.81026C57.1678 6.42081 55.2374 4.97441 52.0106 5.58516ZM29.853 6.19692C29.0899 6.46432 28.4266 6.68553 28.3787 6.68821C28.0173 6.70929 28.4252 7.70993 29 8.21159C29.6706 8.79691 29.7601 8.79959 30.7012 8.26346C31.2476 7.95189 31.9268 7.69721 32.2105 7.69721C32.6924 7.69721 33.8427 9.88389 33.842 10.7995C33.842 11.0261 32.8082 12.103 31.5445 13.193C29.135 15.2719 28.292 16.6444 28.292 18.4884C28.292 21.427 30.6526 21.924 34.175 19.7276C35.3714 18.9817 36.3889 18.4171 36.4364 18.4726C36.4836 18.5282 36.6733 19.0255 36.8572 19.5777C37.1989 20.6021 38.4512 21.1218 39.0908 20.5047C39.2754 20.3267 38.6243 17.9917 37.4944 14.7823C35.5341 9.21423 34.5836 7.08344 33.7809 6.45863C32.9536 5.81441 31.2659 5.70196 29.853 6.19692ZM59.2894 6.53025C59.0549 7.11925 60.4359 17.562 60.8869 18.6145C61.4759 19.9876 62.8309 19.9093 65.5096 18.3481C66.8576 17.5624 68.0114 17.0661 68.0738 17.2448C68.4943 18.4469 69.6605 19.7842 70.1354 19.6081C70.4293 19.4994 70.9395 19.4104 71.2691 19.4104C72.7125 19.4104 72.9997 18.7056 73.8982 12.9567C74.3807 9.86716 74.7758 7.11892 74.7758 6.84918C74.7758 6.5008 74.378 6.35857 73.4039 6.35857C71.8418 6.35857 72.0711 5.76856 71.1317 12.1951C70.8375 14.2091 70.5434 15.9078 70.4785 15.9707C70.4133 16.0333 70.1014 15.7033 69.7847 15.2375C69.4684 14.7716 68.94 14.3941 68.6105 14.3988C68.2809 14.4035 67.0831 15.1521 65.9488 16.0624C64.8141 16.9727 63.8417 17.6745 63.7873 17.6219C63.7332 17.5697 63.3762 15.4282 62.9943 12.863C61.8842 5.4088 62.0906 6.0239 60.6999 6.0239C59.9402 6.0239 59.4157 6.21232 59.2894 6.53025ZM78.4182 6.62295C77.3828 6.82776 76.2657 7.9559 76.0451 9.02013C75.7281 10.5499 76.4663 12.3657 78.0821 14.0324C78.915 14.8911 79.7458 15.9731 79.9283 16.4366C80.4111 17.6618 79.7992 20.3073 78.7166 21.6767C77.2582 23.5213 75.2018 24.2194 71.3069 24.191C69.4944 24.1779 67.2309 23.9932 66.2769 23.7804C63.6901 23.2034 59.2759 21.0177 56.8223 19.0991C55.629 18.1661 54.5262 17.4024 54.3722 17.4024C54.2182 17.4024 53.6708 17.8264 53.1564 18.3448L52.2204 19.2872L53.0044 19.9893C55.0313 21.8039 60.8137 25.1582 63.1233 25.8589C66.4199 26.8589 73.5145 26.9275 76.6838 25.9898C80.4909 24.8637 82.9032 21.5539 82.8404 17.5423C82.813 15.8101 82.0318 14.4761 79.827 12.3965C78.6874 11.3219 78.2448 10.6402 78.2448 9.95952C78.2448 8.23568 79.7281 8.47965 82.087 10.592C82.9719 11.3842 82.9868 11.3858 83.5956 10.7369C84.1874 10.1058 84.1749 10.0368 83.255 8.87355C81.9402 7.21028 80.0039 6.30937 78.4182 6.62295ZM54.9776 7.57506C55.373 8.05998 55.6967 8.94316 55.6967 9.53785C55.6967 10.7848 54.5439 12.3825 53.6437 12.3825C52.6724 12.3825 51.8139 11.1998 51.6276 9.60512C51.476 8.30696 51.5652 8.05664 52.4091 7.41643C53.6479 6.47637 54.1048 6.50448 54.9776 7.57506ZM44.8663 11.164C48.1784 14.5427 47.9803 17.904 44.3629 19.7008C43.4711 20.1439 43.3729 19.8354 43.044 15.5618C42.9306 14.0892 42.7471 12.094 42.6364 11.1275C42.5164 10.0817 42.5709 9.37052 42.7714 9.37052C42.9563 9.37052 43.8991 10.1777 44.8663 11.164ZM35.547 15.121C35.8949 16.0842 35.8401 16.2789 34.9739 17.1524C33.7164 18.4204 31.8647 19.5118 31.4203 19.2467C30.5898 18.7517 31.113 17.3542 32.7378 15.7281C33.6567 14.8084 34.5781 14.0558 34.7852 14.0558C34.9926 14.0558 35.3354 14.535 35.547 15.121ZM3.862 23.7988C2.96702 31.508 2.62186 34.5725 2.62186 34.8128C2.62186 35.4095 3.75863 36.1434 4.68275 36.1434C5.53473 36.1434 5.67938 35.9902 5.86809 34.8884C5.98638 34.1984 6.08733 32.8805 6.09219 31.9602C6.10363 29.8983 6.22747 29.7226 8.17216 29.0158C11.6238 27.7608 13.3971 25.8917 12.9104 24.021C12.6096 22.8657 11.4788 22.4882 7.5311 22.2259L4.07118 21.996L3.862 23.7988ZM17.5383 22.6693C16.6797 22.7406 15.8437 22.9263 15.6803 23.0813C15.3799 23.3667 14.4544 32.6124 14.4298 35.5762L14.4163 37.1842L16.064 37.0822L17.7118 36.9801L17.9816 33.3175C18.1298 31.3029 18.3358 29.5734 18.4388 29.474C18.7531 29.1708 19.8441 30.7855 21.7586 34.3865C22.7615 36.2733 23.6551 37.8167 23.7446 37.8167C24.3159 37.8167 26.2107 36.9573 26.2107 36.698C26.2107 36.5246 25.2119 34.5595 23.9912 32.331L21.7718 28.2789L22.9505 26.8111C25.0919 24.1448 24.2271 22.3674 20.8432 22.4809C19.884 22.513 18.3969 22.5977 17.5383 22.6693ZM47.1634 23.7268C46.5282 24.1003 45.8542 24.9236 45.5157 25.7401C44.7875 27.4961 44.7622 31.1543 45.4692 32.4732C46.1775 33.7944 47.8281 34.5876 49.3114 34.3192C51.4649 33.9293 53.8085 31.0224 52.5666 30.2822C52.3713 30.1657 51.4521 30.6838 50.5238 31.4337C48.619 32.9718 48.2405 33.0689 47.7302 32.1496C47.0909 30.9967 47.3403 30.4746 49.1182 29.242C52.6842 26.7706 52.8469 23.8848 49.4526 23.3028C48.5794 23.1532 47.9366 23.2724 47.1634 23.7268ZM9.36166 23.952C10.5026 25.0531 9.73596 26.9911 7.77185 27.9707C7.19357 28.2595 6.63993 28.4181 6.54176 28.3234C6.44359 28.2287 6.47377 27.0882 6.60906 25.7887C6.8498 23.4748 6.87512 23.4263 7.83567 23.4263C8.37509 23.4263 9.0616 23.6629 9.36166 23.952ZM21.846 23.6294C22.5527 23.8908 22.5554 25.3985 21.8516 26.3683C21.5529 26.7799 20.6943 27.4188 19.9437 27.7883L18.579 28.4599V26.2943C18.579 24.5849 18.707 24.0571 19.1861 23.7877C19.8771 23.3995 21.0385 23.3302 21.846 23.6294ZM28.0801 24.0638C26.34 25.0872 25.3958 26.6528 25.247 28.7591C25.0749 31.1945 25.6293 31.9635 27.5226 31.9156C31.1289 31.8243 33.5919 27.8572 31.9472 24.789C31.1345 23.2724 29.8381 23.0294 28.0801 24.0638ZM38.0758 23.9367C34.1916 24.5223 34.1244 24.5558 34.2537 25.8502C34.3138 26.4496 34.5188 26.9335 34.7096 26.9255C34.9004 26.9171 36.4295 26.786 38.1074 26.6337C39.7853 26.4811 41.2364 26.4322 41.3325 26.5246C41.7255 26.9041 38.7651 32.349 37.6915 33.2205C36.673 34.0474 36.3018 34.1355 33.8409 34.1355C31.3027 34.1355 31.0679 34.1964 30.3886 35.0293C29.3494 36.3041 29.92 36.6454 33.0896 36.6454C36.6237 36.6454 38.6763 35.6826 40.4965 33.1713C41.7654 31.4204 43.6338 26.9874 44.0889 24.6485L44.3265 23.4263L42.6399 23.4648C41.7127 23.4859 39.6587 23.6984 38.0758 23.9367ZM50.1464 25.4068C50.1464 26.0169 47.4153 29.2695 47.1322 28.9964C46.769 28.646 47.7961 26.1197 48.628 25.3168C49.5931 24.3861 50.1464 24.4189 50.1464 25.4068ZM30.501 26.9573C30.465 27.9817 30.1961 28.473 29.1811 29.3706C28.48 29.9903 27.72 30.4385 27.4921 30.3658C26.2956 29.986 27.3499 26.7729 28.9445 25.9379C30.2249 25.2679 30.5534 25.4831 30.501 26.9573ZM56.2378 26.7508C54.622 28.4733 54.1696 32.6201 55.3425 34.9574C56.1903 36.6468 57.5907 37.4821 59.5756 37.4821C61.3247 37.4821 62.4108 36.8619 63.1819 35.4236C63.8889 34.105 63.6034 33.4661 62.3074 33.4661C61.4999 33.4661 61.1436 33.6924 60.7266 34.4701C60.3107 35.2459 59.9527 35.4741 59.1517 35.4741C57.6767 35.4741 56.7405 33.9032 56.7387 31.4264C56.737 29.1912 57.3722 28.4462 59.2797 28.4462C60.3062 28.4462 60.5532 28.3211 60.5532 27.8007C60.5532 26.1688 57.4842 25.4222 56.2378 26.7508ZM74.6024 27.8171C73.4576 27.975 70.5996 28.0737 68.2515 28.0363C63.5434 27.961 63.3436 28.0416 63.3335 30.0228L63.3283 31.0974L66.3637 31.1941L69.399 31.2908L69.4153 36.6454L69.4312 42H70.8029H72.1741L72.2692 36.5865L72.3646 31.173L73.4833 30.9649C76.3542 30.4311 77.9142 30.0302 78.071 29.7855C78.1646 29.6389 78.1449 29.0516 78.0266 28.4807C77.7917 27.3492 77.876 27.3656 74.6024 27.8171Z" fill="#171717"/>
</svg>
