<svg width="33" height="32" viewBox="0 0 33 32" fill="none" xmlns="http://www.w3.org/2000/svg">
<rect x="1" y="0.5" width="31" height="31" rx="15.5" stroke="#D4D4D4"/>
<path fill-rule="evenodd" clip-rule="evenodd" d="M21.6973 16.5301C21.838 16.3894 21.917 16.1987 21.917 15.9998C21.917 15.8009 21.838 15.6101 21.6973 15.4694L18.3633 12.1354C18.0704 11.8425 17.5956 11.8425 17.3027 12.1354C17.0098 12.4283 17.0098 12.9032 17.3027 13.1961L19.3563 15.2498L11.833 15.2498C11.4188 15.2498 11.083 15.5856 11.083 15.9998C11.083 16.414 11.4188 16.7498 11.833 16.7498L19.3563 16.7498L17.3027 18.8034C17.0098 19.0963 17.0098 19.5712 17.3027 19.8641C17.5956 20.157 18.0704 20.157 18.3633 19.8641L21.6973 16.5301Z" fill="#171717"/>
</svg>
